/* XPM */
static char *gwyddion[] = {
/* columns rows colors chars-per-pixel */
"32 32 25 1",
"  c #660000",
". c #660033",
"X c #663300",
"o c #990000",
"O c #990033",
"+ c #993300",
"@ c #993333",
"# c #996600",
"$ c #CC0000",
"% c #CC0033",
"& c #CC3300",
"* c #CC3333",
"= c #FF3300",
"- c #FF3333",
"; c #CC6600",
": c #CC6633",
"> c #FF6600",
", c #FF6633",
"< c #CC9900",
"1 c #CC9933",
"2 c #FF9900",
"3 c #FF9933",
"4 c #FFCC00",
"5 c #FFCC33",
"6 c yellow",
/* pixels */
"                                ",
" O&&@$:++*&&+&+*o,o+O&+O&*o+*&  ",
" &*+;o&%&&O&**+&+O+=&@&&++*&o+* ",
" +&*+O&&@&&&+&*=*&*+*>>,*&o@+*& ",
" &*+&&@+&*+*,&&3>=&>,222-+&*&+* ",
" @&+*+&%&+*=&242=424244<=*&+O&& ",
" &*o&*&X*o&*22>222;>=>>2*+O&&@o ",
" +*&*+*$;*>>422<:-&*+222&&*+*&* ",
" &+ &&&O+>4;=22&>*+&*:2&O&+&&+* ",
" @&*+@&:>>2>6,&O+&O&+->3o+%+*+$ ",
" $*+o*&&124>2,&+*&+*+&+&o:+o*+& ",
" &&*&&*=4>>26&*=@&o*+O+:o&*&&O& ",
" @&+*+:>224>>22>=:+o&*$+*&*+*+o ",
" +O&&&=>6;242><3&+O;*+&*+o&&+@& ",
" +&*o*432>6<232o&*$+ *o+=@+O&*+ ",
" @++*==26>>2222,o&X%&&@*+o*&+o* ",
"  %&+@>*>4422*=:+*+&*&=+*&& *+o ",
" &&+*&+;4>>4>=@&*&+*&3>;-+.&&@& ",
" +*o&@+*>>24>>-&+&*&&>>6>&*&+%& ",
" $@+*$&*><42;2&,%++*>42>-++* &* ",
" +o&&@+&:>>42>>>*=*+:226-&$:&&* ",
" o*&*+-+*=54226>;2&&>42<=@+o*++ ",
" *+*&+&o;&:24>4442>242>4&o&*+o* ",
" +&&*&*+O&,&->42>43=>624*:&+*&o ",
" *o+*+*&&*+&#o*,;=*>:2>4&&*&+@& ",
" +o*+$&@&&*o@&&&@&+-&442-&+@$&O ",
" *o&+*++*&+o*&@&@&+,22>>:&$:&+* ",
" @+*+$*&&@&++*&oo*&=24;$o:+&*&+ ",
" +&+*&*+*&@o*&+:&&,42>=*&o@&O+O ",
" o*&&+&*&&*+&@&$@;&2:2>&@&&++*& ",
" *o@&@o+*++O$&@&&O+*&*o*&*&*$+@ ",
"                                "
};
